<svg width="20" height="20" viewBox="0 0 20 20" fill="none" xmlns="http://www.w3.org/2000/svg">
<path fill-rule="evenodd" clip-rule="evenodd" d="M16.6947 5.29279C16.8822 5.48031 16.9875 5.73462 16.9875 5.99979C16.9875 6.26495 16.8822 6.51926 16.6947 6.70679L8.69471 14.7068C8.50718 14.8943 8.25288 14.9996 7.98771 14.9996C7.72255 14.9996 7.46824 14.8943 7.28071 14.7068L3.28071 10.7068C3.09855 10.5182 2.99776 10.2656 3.00004 10.0034C3.00232 9.74119 3.10749 9.49038 3.29289 9.30497C3.4783 9.11956 3.72911 9.01439 3.99131 9.01211C4.25351 9.00983 4.50611 9.11063 4.69471 9.29279L7.98771 12.5858L15.2807 5.29279C15.4682 5.10532 15.7225 5 15.9877 5C16.2529 5 16.5072 5.10532 16.6947 5.29279Z" fill="black"/>
</svg>
